# xmcd
# 
# Track frame offsets:
#     150
#     14198
#     24781
#     36725
#     50421
#     62505
#     75922
#     89139
#     99371
#     110079
#     121938
#     141156
#     154077
#     166857
#     183110
#     195716
#     217167
#     228289
#     240833
#     255960
#     267403
#     282365
#     299998
#     314743
# 
# Disc length: 4452
# 
# Revision: 1
# Processed by: cddbd v1.5.2PL0 Copyright (c) Steve Scherf et al.
# Submitted via: fre:ac v1.1beta1pre5
# 
DISCID=5d116218
DTITLE=Various Artist - Bebop Piano
DYEAR=2003
DGENRE=Jazz
TTITLE0=George Wallington - Fine And dandy
TTITLE1=George Wallington - I Didn't Know What Time It Was
TTITLE2=Nat King Cole - Bop-Kick
TTITLE3=Wynton Kelly - There Will Never Be Another You
TTITLE4=George Shearing - Bop's Your Uncle
TTITLE5=Dodo Marmarosa - Bopmatism
TTITLE6=Oscar Peterson - Nameless
TTITLE7=Al Haig - Taking A Chance On Love
TTITLE8=Al Haig - Opus Caprice
TTITLE9=Al Haig - Liza
TTITLE10=Hampton Hawes - Blue Bird
TTITLE11=Horace Silver - Safari
TTITLE12=Thelonious Monk - Trinkle Tinkle
TTITLE13=Thelonious Monk - Sweet And Lovely
TTITLE14=Thelonious Monk - Bye Ya
TTITLE15=Bud Powell - Un Poco Loco
TTITLE16=Bud Powell - Tempus Fugue Il
TTITLE17=Bud Powell - Indiana
TTITLE18=Bud Powell - The Fruit
TTITLE19=Bud Powell - Parisian Thoroughfare
TTITLE20=Bud Powell - So Sorry Please
TTITLE21=Bud Powell - Just One Of Those Things
TTITLE22=Bud Powell - You Go To My Head
TTITLE23=Bud Powell - A Night In Tunisia
EXTD=
EXTT0=
EXTT1=
EXTT2=
EXTT3=
EXTT4=
EXTT5=
EXTT6=
EXTT7=
EXTT8=
EXTT9=
EXTT10=
EXTT11=
EXTT12=
EXTT13=
EXTT14=
EXTT15=
EXTT16=
EXTT17=
EXTT18=
EXTT19=
EXTT20=
EXTT21=
EXTT22=
EXTT23=
PLAYORDER=
